<mxfile host="app.diagrams.net" agent="Mozilla/5.0 (Windows NT 10.0; Win64; x64; rv:133.0) Gecko/20100101 Firefox/133.0" version="25.0.1">
  <diagram name="Page-1" id="rGTRCulJfiBm-AP48s3k">
    <mxGraphModel dx="2514" dy="920" grid="1" gridSize="10" guides="1" tooltips="1" connect="1" arrows="1" fold="1" page="1" pageScale="1" pageWidth="827" pageHeight="1169" math="0" shadow="0">
      <root>
        <mxCell id="0" />
        <mxCell id="1" parent="0" />
        <mxCell id="927_MgepjLK5iYnM9Jvt-1" value="user" style="swimlane;whiteSpace=wrap;html=1;" vertex="1" parent="1">
          <mxGeometry x="-320" y="30" width="200" height="200" as="geometry" />
        </mxCell>
        <mxCell id="927_MgepjLK5iYnM9Jvt-26" value="&lt;div&gt;id&lt;/div&gt;&lt;div&gt;role&lt;/div&gt;&lt;div&gt;poste&lt;/div&gt;&lt;div&gt;nom&lt;/div&gt;&lt;div&gt;prenom&lt;/div&gt;&lt;div&gt;telephone&lt;/div&gt;&lt;div&gt;mail&lt;br&gt;&lt;/div&gt;&lt;div&gt;password&lt;br&gt;&lt;/div&gt;" style="text;html=1;align=center;verticalAlign=middle;resizable=0;points=[];autosize=1;strokeColor=none;fillColor=none;" vertex="1" parent="927_MgepjLK5iYnM9Jvt-1">
          <mxGeometry x="60" y="35" width="80" height="130" as="geometry" />
        </mxCell>
        <mxCell id="927_MgepjLK5iYnM9Jvt-37" value="" style="endArrow=classic;html=1;rounded=0;entryX=0.68;entryY=-0.006;entryDx=0;entryDy=0;entryPerimeter=0;" edge="1" parent="927_MgepjLK5iYnM9Jvt-1" target="927_MgepjLK5iYnM9Jvt-10">
          <mxGeometry width="50" height="50" relative="1" as="geometry">
            <mxPoint x="100" y="200" as="sourcePoint" />
            <mxPoint x="150" y="150" as="targetPoint" />
          </mxGeometry>
        </mxCell>
        <mxCell id="927_MgepjLK5iYnM9Jvt-2" value="&lt;div&gt;stock&lt;/div&gt;" style="swimlane;whiteSpace=wrap;html=1;" vertex="1" parent="1">
          <mxGeometry x="-355" y="640" width="200" height="90" as="geometry" />
        </mxCell>
        <mxCell id="927_MgepjLK5iYnM9Jvt-48" value="&lt;div&gt;id&lt;/div&gt;&lt;div&gt;category_id&lt;/div&gt;&lt;div&gt;date MAJ&lt;/div&gt;" style="text;html=1;align=center;verticalAlign=middle;resizable=0;points=[];autosize=1;strokeColor=none;fillColor=none;" vertex="1" parent="927_MgepjLK5iYnM9Jvt-2">
          <mxGeometry x="55" y="30" width="90" height="60" as="geometry" />
        </mxCell>
        <mxCell id="927_MgepjLK5iYnM9Jvt-5" value="PDV" style="swimlane;whiteSpace=wrap;html=1;" vertex="1" parent="1">
          <mxGeometry x="60" y="320" width="200" height="200" as="geometry" />
        </mxCell>
        <mxCell id="927_MgepjLK5iYnM9Jvt-7" value="&lt;div&gt;category&lt;/div&gt;" style="swimlane;whiteSpace=wrap;html=1;" vertex="1" parent="1">
          <mxGeometry x="-355" y="763" width="200" height="80" as="geometry" />
        </mxCell>
        <mxCell id="927_MgepjLK5iYnM9Jvt-52" value="&lt;div&gt;id&lt;/div&gt;&lt;div&gt;sous-category_id&lt;br&gt;&lt;/div&gt;" style="text;html=1;align=center;verticalAlign=middle;resizable=0;points=[];autosize=1;strokeColor=none;fillColor=none;" vertex="1" parent="927_MgepjLK5iYnM9Jvt-7">
          <mxGeometry x="35" y="32" width="120" height="40" as="geometry" />
        </mxCell>
        <mxCell id="927_MgepjLK5iYnM9Jvt-8" value="courbeEvolution" style="swimlane;whiteSpace=wrap;html=1;startSize=23;" vertex="1" parent="1">
          <mxGeometry x="-120" y="570" width="200" height="110" as="geometry" />
        </mxCell>
        <mxCell id="927_MgepjLK5iYnM9Jvt-9" value="&lt;div&gt;CA&lt;/div&gt;&lt;div&gt;Bénéfice&lt;/div&gt;&lt;div&gt;Dépense&lt;/div&gt;&lt;div&gt;Courbe Evolutive + %&lt;br&gt;&lt;/div&gt;" style="text;html=1;align=center;verticalAlign=middle;resizable=0;points=[];autosize=1;strokeColor=none;fillColor=none;" vertex="1" parent="927_MgepjLK5iYnM9Jvt-8">
          <mxGeometry x="30" y="30" width="140" height="70" as="geometry" />
        </mxCell>
        <mxCell id="927_MgepjLK5iYnM9Jvt-10" value="Rayon" style="swimlane;whiteSpace=wrap;html=1;" vertex="1" parent="1">
          <mxGeometry x="-470" y="320" width="200" height="200" as="geometry" />
        </mxCell>
        <mxCell id="927_MgepjLK5iYnM9Jvt-40" value="&lt;div&gt;id&lt;/div&gt;&lt;div&gt;pdv_id&lt;/div&gt;&lt;div&gt;nom&lt;/div&gt;&lt;div&gt;user_id&lt;br&gt;&lt;/div&gt;&lt;div&gt;id_personnel&lt;br&gt;&lt;/div&gt;&lt;div&gt;id_fournisseur&lt;br&gt;&lt;/div&gt;" style="text;html=1;align=center;verticalAlign=middle;resizable=0;points=[];autosize=1;strokeColor=none;fillColor=none;" vertex="1" parent="927_MgepjLK5iYnM9Jvt-10">
          <mxGeometry x="50" y="45" width="100" height="100" as="geometry" />
        </mxCell>
        <mxCell id="927_MgepjLK5iYnM9Jvt-11" value="personel" style="swimlane;whiteSpace=wrap;html=1;" vertex="1" parent="1">
          <mxGeometry x="-590" y="640" width="200" height="200" as="geometry" />
        </mxCell>
        <mxCell id="927_MgepjLK5iYnM9Jvt-13" value="Agenda_Rayon" style="swimlane;whiteSpace=wrap;html=1;" vertex="1" parent="1">
          <mxGeometry x="-770" y="450" width="150" height="135" as="geometry" />
        </mxCell>
        <mxCell id="927_MgepjLK5iYnM9Jvt-46" value="&lt;div&gt;rayon_id&lt;/div&gt;&lt;div&gt;nomEvenement&lt;/div&gt;&lt;div&gt;description&lt;br&gt;&lt;/div&gt;&lt;div&gt;dateStart&lt;/div&gt;&lt;div&gt;dateEnd&lt;br&gt;&lt;/div&gt;" style="text;html=1;align=center;verticalAlign=middle;resizable=0;points=[];autosize=1;strokeColor=none;fillColor=none;" vertex="1" parent="927_MgepjLK5iYnM9Jvt-13">
          <mxGeometry x="30" y="35" width="110" height="90" as="geometry" />
        </mxCell>
        <mxCell id="927_MgepjLK5iYnM9Jvt-14" value="sousCategory" style="swimlane;whiteSpace=wrap;html=1;" vertex="1" parent="1">
          <mxGeometry x="-355" y="870" width="200" height="130" as="geometry" />
        </mxCell>
        <mxCell id="927_MgepjLK5iYnM9Jvt-69" value="&lt;div&gt;id&lt;/div&gt;&lt;div&gt;nom&lt;/div&gt;&lt;div&gt;prix de vente&lt;br&gt;&lt;/div&gt;" style="text;html=1;align=center;verticalAlign=middle;resizable=0;points=[];autosize=1;strokeColor=none;fillColor=none;" vertex="1" parent="927_MgepjLK5iYnM9Jvt-14">
          <mxGeometry x="55" y="42" width="90" height="60" as="geometry" />
        </mxCell>
        <mxCell id="927_MgepjLK5iYnM9Jvt-15" value="facture" style="swimlane;whiteSpace=wrap;html=1;" vertex="1" parent="1">
          <mxGeometry x="-810" y="887" width="200" height="98" as="geometry" />
        </mxCell>
        <mxCell id="927_MgepjLK5iYnM9Jvt-57" value="&lt;div&gt;id&lt;/div&gt;&lt;div&gt;date&lt;/div&gt;&lt;div&gt;image&lt;/div&gt;&lt;div&gt;prix&lt;br&gt;&lt;/div&gt;" style="text;html=1;align=center;verticalAlign=middle;resizable=0;points=[];autosize=1;strokeColor=none;fillColor=none;" vertex="1" parent="927_MgepjLK5iYnM9Jvt-15">
          <mxGeometry x="70" y="28" width="60" height="70" as="geometry" />
        </mxCell>
        <mxCell id="927_MgepjLK5iYnM9Jvt-16" value="horaire" style="swimlane;whiteSpace=wrap;html=1;" vertex="1" parent="1">
          <mxGeometry x="-590" y="887" width="200" height="110" as="geometry" />
        </mxCell>
        <mxCell id="927_MgepjLK5iYnM9Jvt-50" value="&lt;div&gt;idPersonel&lt;/div&gt;&lt;div&gt;date&lt;/div&gt;&lt;div&gt;heure&lt;br&gt;&lt;/div&gt;" style="text;html=1;align=center;verticalAlign=middle;resizable=0;points=[];autosize=1;strokeColor=none;fillColor=none;" vertex="1" parent="927_MgepjLK5iYnM9Jvt-16">
          <mxGeometry x="60" y="40" width="80" height="60" as="geometry" />
        </mxCell>
        <mxCell id="927_MgepjLK5iYnM9Jvt-21" value="&lt;div&gt;agenda_user&lt;/div&gt;" style="swimlane;whiteSpace=wrap;html=1;" vertex="1" parent="1">
          <mxGeometry x="-50" y="30" width="200" height="200" as="geometry" />
        </mxCell>
        <mxCell id="927_MgepjLK5iYnM9Jvt-30" value="" style="endArrow=classic;html=1;rounded=0;" edge="1" parent="927_MgepjLK5iYnM9Jvt-21">
          <mxGeometry width="50" height="50" relative="1" as="geometry">
            <mxPoint y="120" as="sourcePoint" />
            <mxPoint x="-70" y="120" as="targetPoint" />
          </mxGeometry>
        </mxCell>
        <mxCell id="927_MgepjLK5iYnM9Jvt-22" value="agenda_pdv" style="swimlane;whiteSpace=wrap;html=1;" vertex="1" parent="1">
          <mxGeometry x="334" y="320" width="200" height="200" as="geometry" />
        </mxCell>
        <mxCell id="927_MgepjLK5iYnM9Jvt-28" value="&lt;div&gt;pdv_id&lt;/div&gt;&lt;div&gt;nomEvenement&lt;/div&gt;&lt;div&gt;description&lt;br&gt;&lt;/div&gt;&lt;div&gt;dateStart&lt;/div&gt;&lt;div&gt;dateEnd&lt;br&gt;&lt;/div&gt;" style="text;html=1;align=center;verticalAlign=middle;resizable=0;points=[];autosize=1;strokeColor=none;fillColor=none;" vertex="1" parent="927_MgepjLK5iYnM9Jvt-22">
          <mxGeometry x="40" y="50" width="110" height="90" as="geometry" />
        </mxCell>
        <mxCell id="927_MgepjLK5iYnM9Jvt-25" value="fournisseur" style="swimlane;whiteSpace=wrap;html=1;" vertex="1" parent="1">
          <mxGeometry x="-810" y="640" width="200" height="140" as="geometry" />
        </mxCell>
        <mxCell id="927_MgepjLK5iYnM9Jvt-55" value="&lt;div&gt;id&lt;/div&gt;&lt;div&gt;nom&lt;/div&gt;&lt;div&gt;siret&lt;br&gt;&lt;/div&gt;&lt;div&gt;adresse&lt;/div&gt;&lt;div&gt;telephone&lt;/div&gt;&lt;div&gt;mail&lt;br&gt;&lt;/div&gt;" style="text;html=1;align=center;verticalAlign=middle;resizable=0;points=[];autosize=1;strokeColor=none;fillColor=none;" vertex="1" parent="927_MgepjLK5iYnM9Jvt-25">
          <mxGeometry x="60" y="30" width="80" height="100" as="geometry" />
        </mxCell>
        <mxCell id="927_MgepjLK5iYnM9Jvt-27" value="&lt;div&gt;user_id&lt;/div&gt;&lt;div&gt;nomEvenement&lt;/div&gt;&lt;div&gt;description&lt;br&gt;&lt;/div&gt;&lt;div&gt;dateStart&lt;/div&gt;&lt;div&gt;dateEnd&lt;br&gt;&lt;/div&gt;" style="text;html=1;align=center;verticalAlign=middle;resizable=0;points=[];autosize=1;strokeColor=none;fillColor=none;" vertex="1" parent="1">
          <mxGeometry x="5" y="88" width="110" height="90" as="geometry" />
        </mxCell>
        <mxCell id="927_MgepjLK5iYnM9Jvt-29" value="&lt;div&gt;id&lt;/div&gt;&lt;div&gt;nom&lt;/div&gt;&lt;div&gt;telphone&lt;/div&gt;&lt;div&gt;mail&lt;/div&gt;&lt;div&gt;password&lt;br&gt;&lt;/div&gt;&lt;div&gt;siret&lt;br&gt;&lt;/div&gt;" style="text;html=1;align=center;verticalAlign=middle;resizable=0;points=[];autosize=1;strokeColor=none;fillColor=none;" vertex="1" parent="1">
          <mxGeometry x="114" y="353" width="80" height="100" as="geometry" />
        </mxCell>
        <mxCell id="927_MgepjLK5iYnM9Jvt-32" value="" style="endArrow=classic;html=1;rounded=0;" edge="1" parent="1">
          <mxGeometry width="50" height="50" relative="1" as="geometry">
            <mxPoint x="334" y="419.40999999999997" as="sourcePoint" />
            <mxPoint x="264" y="419.40999999999997" as="targetPoint" />
          </mxGeometry>
        </mxCell>
        <mxCell id="927_MgepjLK5iYnM9Jvt-38" value="" style="endArrow=classic;startArrow=classic;html=1;rounded=0;entryX=0.5;entryY=0;entryDx=0;entryDy=0;exitX=0.5;exitY=1;exitDx=0;exitDy=0;" edge="1" parent="1" source="927_MgepjLK5iYnM9Jvt-1" target="927_MgepjLK5iYnM9Jvt-5">
          <mxGeometry width="50" height="50" relative="1" as="geometry">
            <mxPoint x="-140" y="430" as="sourcePoint" />
            <mxPoint x="-90" y="380" as="targetPoint" />
          </mxGeometry>
        </mxCell>
        <mxCell id="927_MgepjLK5iYnM9Jvt-39" value="" style="endArrow=classic;startArrow=classic;html=1;rounded=0;exitX=1;exitY=0.5;exitDx=0;exitDy=0;entryX=0;entryY=0.5;entryDx=0;entryDy=0;" edge="1" parent="1" source="927_MgepjLK5iYnM9Jvt-10" target="927_MgepjLK5iYnM9Jvt-41">
          <mxGeometry width="50" height="50" relative="1" as="geometry">
            <mxPoint x="-140" y="430" as="sourcePoint" />
            <mxPoint x="-140" y="420" as="targetPoint" />
          </mxGeometry>
        </mxCell>
        <mxCell id="927_MgepjLK5iYnM9Jvt-41" value="chiffre_général" style="swimlane;whiteSpace=wrap;html=1;" vertex="1" parent="1">
          <mxGeometry x="-220" y="320" width="200" height="200" as="geometry" />
        </mxCell>
        <mxCell id="927_MgepjLK5iYnM9Jvt-42" value="" style="endArrow=classic;startArrow=classic;html=1;rounded=0;entryX=0;entryY=0.5;entryDx=0;entryDy=0;exitX=1;exitY=0.5;exitDx=0;exitDy=0;" edge="1" parent="1" source="927_MgepjLK5iYnM9Jvt-41" target="927_MgepjLK5iYnM9Jvt-5">
          <mxGeometry width="50" height="50" relative="1" as="geometry">
            <mxPoint x="-20" y="428" as="sourcePoint" />
            <mxPoint x="30" y="378" as="targetPoint" />
          </mxGeometry>
        </mxCell>
        <mxCell id="927_MgepjLK5iYnM9Jvt-44" value="&lt;div&gt;id_pdv&lt;/div&gt;&lt;div&gt;id_rayon&lt;br&gt;&lt;/div&gt;" style="text;html=1;align=center;verticalAlign=middle;resizable=0;points=[];autosize=1;strokeColor=none;fillColor=none;" vertex="1" parent="1">
          <mxGeometry x="-155" y="401" width="70" height="40" as="geometry" />
        </mxCell>
        <mxCell id="927_MgepjLK5iYnM9Jvt-45" value="" style="endArrow=classic;html=1;rounded=0;exitX=0.985;exitY=0.161;exitDx=0;exitDy=0;entryX=0;entryY=0.75;entryDx=0;entryDy=0;exitPerimeter=0;" edge="1" parent="1" source="927_MgepjLK5iYnM9Jvt-13" target="927_MgepjLK5iYnM9Jvt-10">
          <mxGeometry width="50" height="50" relative="1" as="geometry">
            <mxPoint x="-120" y="370" as="sourcePoint" />
            <mxPoint x="-70" y="320" as="targetPoint" />
          </mxGeometry>
        </mxCell>
        <mxCell id="927_MgepjLK5iYnM9Jvt-47" value="" style="endArrow=classic;html=1;rounded=0;exitX=0.5;exitY=0;exitDx=0;exitDy=0;entryX=0.5;entryY=1;entryDx=0;entryDy=0;" edge="1" parent="1" source="927_MgepjLK5iYnM9Jvt-2" target="927_MgepjLK5iYnM9Jvt-10">
          <mxGeometry width="50" height="50" relative="1" as="geometry">
            <mxPoint x="-120" y="720" as="sourcePoint" />
            <mxPoint x="-70" y="670" as="targetPoint" />
          </mxGeometry>
        </mxCell>
        <mxCell id="927_MgepjLK5iYnM9Jvt-49" value="&lt;div&gt;id&lt;/div&gt;&lt;div&gt;nom&lt;/div&gt;&lt;div&gt;prenom&lt;/div&gt;&lt;div&gt;mail&lt;/div&gt;&lt;div&gt;telephone&lt;br&gt;&lt;/div&gt;&lt;div&gt;poste&lt;/div&gt;&lt;div&gt;disponible&lt;br&gt;&lt;/div&gt;" style="text;html=1;align=center;verticalAlign=middle;resizable=0;points=[];autosize=1;strokeColor=none;fillColor=none;" vertex="1" parent="1">
          <mxGeometry x="-530" y="689" width="80" height="110" as="geometry" />
        </mxCell>
        <mxCell id="927_MgepjLK5iYnM9Jvt-51" value="" style="endArrow=classic;html=1;rounded=0;exitX=0.5;exitY=0;exitDx=0;exitDy=0;entryX=0.5;entryY=1;entryDx=0;entryDy=0;" edge="1" parent="1" source="927_MgepjLK5iYnM9Jvt-16" target="927_MgepjLK5iYnM9Jvt-11">
          <mxGeometry width="50" height="50" relative="1" as="geometry">
            <mxPoint x="-120" y="930" as="sourcePoint" />
            <mxPoint x="-70" y="880" as="targetPoint" />
          </mxGeometry>
        </mxCell>
        <mxCell id="927_MgepjLK5iYnM9Jvt-53" value="" style="endArrow=classic;html=1;rounded=0;entryX=0.623;entryY=-0.007;entryDx=0;entryDy=0;entryPerimeter=0;" edge="1" parent="1" target="927_MgepjLK5iYnM9Jvt-7">
          <mxGeometry width="50" height="50" relative="1" as="geometry">
            <mxPoint x="-230" y="730" as="sourcePoint" />
            <mxPoint x="-70" y="810" as="targetPoint" />
          </mxGeometry>
        </mxCell>
        <mxCell id="927_MgepjLK5iYnM9Jvt-54" value="" style="endArrow=classic;html=1;rounded=0;entryX=0.5;entryY=1;entryDx=0;entryDy=0;" edge="1" parent="1" target="927_MgepjLK5iYnM9Jvt-10">
          <mxGeometry width="50" height="50" relative="1" as="geometry">
            <mxPoint x="-480" y="640" as="sourcePoint" />
            <mxPoint x="-430" y="590" as="targetPoint" />
          </mxGeometry>
        </mxCell>
        <mxCell id="927_MgepjLK5iYnM9Jvt-56" value="" style="endArrow=classic;startArrow=classic;html=1;rounded=0;entryX=0;entryY=0.75;entryDx=0;entryDy=0;exitX=0.801;exitY=-0.008;exitDx=0;exitDy=0;exitPerimeter=0;" edge="1" parent="1" source="927_MgepjLK5iYnM9Jvt-25" target="927_MgepjLK5iYnM9Jvt-10">
          <mxGeometry width="50" height="50" relative="1" as="geometry">
            <mxPoint x="-690" y="640" as="sourcePoint" />
            <mxPoint x="-640" y="590" as="targetPoint" />
          </mxGeometry>
        </mxCell>
        <mxCell id="927_MgepjLK5iYnM9Jvt-58" value="" style="endArrow=classic;html=1;rounded=0;exitX=0.5;exitY=0;exitDx=0;exitDy=0;entryX=0.5;entryY=1;entryDx=0;entryDy=0;" edge="1" parent="1" source="927_MgepjLK5iYnM9Jvt-15" target="927_MgepjLK5iYnM9Jvt-25">
          <mxGeometry width="50" height="50" relative="1" as="geometry">
            <mxPoint x="-120" y="900" as="sourcePoint" />
            <mxPoint x="-70" y="850" as="targetPoint" />
          </mxGeometry>
        </mxCell>
        <mxCell id="927_MgepjLK5iYnM9Jvt-59" value="" style="endArrow=classic;html=1;rounded=0;exitX=-0.011;exitY=0.187;exitDx=0;exitDy=0;exitPerimeter=0;entryX=1;entryY=1;entryDx=0;entryDy=0;" edge="1" parent="1" source="927_MgepjLK5iYnM9Jvt-8" target="927_MgepjLK5iYnM9Jvt-10">
          <mxGeometry width="50" height="50" relative="1" as="geometry">
            <mxPoint x="-120" y="790" as="sourcePoint" />
            <mxPoint x="-70" y="740" as="targetPoint" />
          </mxGeometry>
        </mxCell>
        <mxCell id="927_MgepjLK5iYnM9Jvt-60" value="bénefice" style="swimlane;whiteSpace=wrap;html=1;" vertex="1" parent="1">
          <mxGeometry x="-115" y="726" width="70" height="70" as="geometry" />
        </mxCell>
        <mxCell id="927_MgepjLK5iYnM9Jvt-61" value="&lt;div&gt;date&lt;/div&gt;&lt;div&gt;benefice&lt;br&gt;&lt;/div&gt;" style="text;html=1;align=center;verticalAlign=middle;resizable=0;points=[];autosize=1;strokeColor=none;fillColor=none;" vertex="1" parent="1">
          <mxGeometry x="-120" y="759" width="70" height="40" as="geometry" />
        </mxCell>
        <mxCell id="927_MgepjLK5iYnM9Jvt-62" value="" style="endArrow=classic;html=1;rounded=0;exitX=0.5;exitY=0;exitDx=0;exitDy=0;entryX=0.25;entryY=1;entryDx=0;entryDy=0;" edge="1" parent="1" source="927_MgepjLK5iYnM9Jvt-60" target="927_MgepjLK5iYnM9Jvt-8">
          <mxGeometry width="50" height="50" relative="1" as="geometry">
            <mxPoint x="-120" y="790" as="sourcePoint" />
            <mxPoint x="-70" y="740" as="targetPoint" />
          </mxGeometry>
        </mxCell>
        <mxCell id="927_MgepjLK5iYnM9Jvt-63" value="depense" style="swimlane;whiteSpace=wrap;html=1;" vertex="1" parent="1">
          <mxGeometry x="-35" y="726" width="145" height="84" as="geometry" />
        </mxCell>
        <mxCell id="927_MgepjLK5iYnM9Jvt-64" value="&lt;div&gt;date&lt;/div&gt;&lt;div&gt;dépense&lt;br&gt;&lt;/div&gt;" style="text;html=1;align=center;verticalAlign=middle;resizable=0;points=[];autosize=1;strokeColor=none;fillColor=none;" vertex="1" parent="927_MgepjLK5iYnM9Jvt-63">
          <mxGeometry x="35" y="37" width="70" height="40" as="geometry" />
        </mxCell>
        <mxCell id="927_MgepjLK5iYnM9Jvt-66" value="&lt;div&gt;CA&lt;/div&gt;" style="swimlane;whiteSpace=wrap;html=1;" vertex="1" parent="1">
          <mxGeometry x="130" y="719" width="145" height="84" as="geometry" />
        </mxCell>
        <mxCell id="927_MgepjLK5iYnM9Jvt-67" value="&lt;div&gt;date&lt;/div&gt;&lt;div&gt;CA&lt;br&gt;&lt;/div&gt;" style="text;html=1;align=center;verticalAlign=middle;resizable=0;points=[];autosize=1;strokeColor=none;fillColor=none;" vertex="1" parent="927_MgepjLK5iYnM9Jvt-66">
          <mxGeometry x="45" y="37" width="50" height="40" as="geometry" />
        </mxCell>
        <mxCell id="927_MgepjLK5iYnM9Jvt-68" value="" style="endArrow=classic;html=1;rounded=0;exitX=0.75;exitY=1;exitDx=0;exitDy=0;entryX=0.5;entryY=1;entryDx=0;entryDy=0;" edge="1" parent="1" source="927_MgepjLK5iYnM9Jvt-15" target="927_MgepjLK5iYnM9Jvt-63">
          <mxGeometry width="50" height="50" relative="1" as="geometry">
            <mxPoint x="-190" y="940" as="sourcePoint" />
            <mxPoint x="-140" y="890" as="targetPoint" />
            <Array as="points">
              <mxPoint x="-660" y="1040" />
              <mxPoint x="38" y="1040" />
            </Array>
          </mxGeometry>
        </mxCell>
      </root>
    </mxGraphModel>
  </diagram>
</mxfile>
